<svg width="1130" height="236" viewBox="0 0 1130 236" fill="none" xmlns="http://www.w3.org/2000/svg">
<circle cx="118" cy="118" r="118" fill="#333333"/>
<circle cx="1030" cy="118" r="100" fill="#0A27A6"/>
<circle cx="389" cy="118" r="118" fill="#66FF00"/>
<circle cx="779" cy="118" r="118" fill="#66FF00"/>
<rect x="389" width="396" height="236" fill="#66FF00"/>
<path d="M98.8949 154V142.92L124.783 118.95C126.984 116.82 128.831 114.902 130.322 113.197C131.838 111.493 132.986 109.824 133.767 108.19C134.548 106.533 134.939 104.746 134.939 102.828C134.939 100.697 134.454 98.8627 133.483 97.3239C132.512 95.7614 131.187 94.5658 129.506 93.7372C127.825 92.8849 125.919 92.4588 123.788 92.4588C121.563 92.4588 119.622 92.9086 117.964 93.8082C116.307 94.7079 115.029 95.9981 114.129 97.679C113.23 99.3598 112.78 101.36 112.78 103.68H98.1847C98.1847 98.9219 99.2618 94.7907 101.416 91.2869C103.571 87.7831 106.589 85.0724 110.472 83.1548C114.354 81.2372 118.829 80.2784 123.895 80.2784C129.103 80.2784 133.637 81.2017 137.496 83.0483C141.378 84.8712 144.397 87.4044 146.551 90.6477C148.705 93.8911 149.783 97.608 149.783 101.798C149.783 104.545 149.238 107.255 148.149 109.93C147.084 112.606 145.178 115.577 142.432 118.844C139.686 122.087 135.815 125.982 130.82 130.527L120.202 140.932V141.429H150.741V154H98.8949Z" fill="white"/>
</svg>
