<svg width="1130" height="236" viewBox="0 0 1130 236" fill="none" xmlns="http://www.w3.org/2000/svg">
<circle cx="118" cy="118" r="118" fill="#333333"/>
<circle cx="1030" cy="118" r="100" fill="#FFCC99"/>
<circle cx="389" cy="118" r="118" fill="#6633CC"/>
<circle cx="779" cy="118" r="118" fill="#6633CC"/>
<rect x="389" width="396" height="236" fill="#6633CC"/>
<path d="M120.777 154.994C115.474 154.994 110.751 154.083 106.608 152.26C102.489 150.413 99.2334 147.88 96.8423 144.661C94.4749 141.417 93.2557 137.677 93.1847 133.439H108.668C108.762 135.214 109.342 136.777 110.408 138.126C111.497 139.452 112.941 140.482 114.74 141.216C116.539 141.95 118.563 142.317 120.812 142.317C123.156 142.317 125.228 141.902 127.027 141.074C128.826 140.245 130.235 139.097 131.253 137.629C132.271 136.161 132.78 134.469 132.78 132.551C132.78 130.61 132.235 128.893 131.146 127.402C130.081 125.887 128.542 124.703 126.53 123.851C124.541 122.999 122.174 122.572 119.428 122.572H112.645V111.28H119.428C121.748 111.28 123.795 110.877 125.571 110.072C127.37 109.268 128.767 108.155 129.761 106.734C130.756 105.29 131.253 103.609 131.253 101.692C131.253 99.8688 130.815 98.2708 129.939 96.8977C129.087 95.5009 127.879 94.4119 126.317 93.6307C124.778 92.8494 122.979 92.4588 120.919 92.4588C118.836 92.4588 116.93 92.8376 115.202 93.5952C113.473 94.3291 112.089 95.3826 111.047 96.7557C110.005 98.1288 109.449 99.7386 109.378 101.585H94.6406C94.7116 97.3949 95.9072 93.7017 98.2273 90.5057C100.547 87.3097 103.672 84.812 107.602 83.0128C111.556 81.1899 116.018 80.2784 120.99 80.2784C126.009 80.2784 130.401 81.1899 134.165 83.0128C137.929 84.8357 140.853 87.2978 142.936 90.3991C145.043 93.4768 146.085 96.9332 146.061 100.768C146.085 104.84 144.818 108.238 142.261 110.96C139.728 113.683 136.426 115.411 132.354 116.145V116.713C137.704 117.4 141.776 119.258 144.57 122.288C147.387 125.295 148.784 129.059 148.76 133.581C148.784 137.724 147.588 141.405 145.173 144.625C142.782 147.845 139.48 150.378 135.266 152.224C131.052 154.071 126.222 154.994 120.777 154.994Z" fill="white"/>
</svg>
