<svg class="svg-icon" style="width: 1.1103515625em; height: 1em;vertical-align: middle;fill: currentColor;overflow: hidden;" viewBox="0 0 1137 1024" version="1.1" xmlns="http://www.w3.org/2000/svg"><path d="M571.922963 479.762963c23.324444 0 41.490963-3.299556 54.46163-9.936593 20.366222-10.42963 30.568296-29.165037 30.568296-56.244148 0-27.268741-10.846815-45.624889-32.502519-55.10637-12.212148-5.30963-30.378667-7.964444-54.461629-7.964445h-98.607408v129.251556h100.54163z m18.583704 192.549926c33.905778 0 58.064593-10.05037 72.51437-30.113185 9.064296-12.667259 13.615407-28.027259 13.615407-46.004148 0-30.302815-13.236148-50.934519-39.708444-61.895112-14.108444-5.878519-32.692148-8.798815-55.864889-8.798814h-109.719704v146.811259h119.16326zM417.185185 303.407407h175.29363c47.786667 0 81.768296 14.563556 101.944889 43.728593 11.870815 17.21837 17.787259 37.091556 17.787259 59.619556 0 26.320593-7.319704 47.900444-21.959111 64.739555-7.585185 8.950519-18.545778 17.066667-32.805926 24.462222 20.935111 8.154074 36.598519 17.332148 46.952296 27.534223 18.318222 18.166519 27.496296 43.273481 27.496297 75.245037 0 26.889481-8.229926 51.2-24.727704 72.969481-24.613926 32.616296-63.791407 48.886519-117.494519 48.886519H417.185185V303.407407z"  /></svg>