<svg class="svg-icon" style="width: 1em; height: 1em;vertical-align: middle;fill: currentColor;overflow: hidden;" viewBox="0 0 1024 1024" version="1.1" xmlns="http://www.w3.org/2000/svg"><path d="M871.221045 960.514713 149.148829 960.514713C76.705306 960.514713 51.273259 947.959724 51.273259 862.644842L51.273259 168.865577C51.273259 96.428295 74.866501 70.997876 149.148829 70.997876L871.221045 70.997876C958.376903 70.997876 969.098785 98.266828 969.098785 168.865577L969.098785 862.644842C969.098785 936.924184 956.538099 960.514713 871.221045 960.514713ZM83.159436 883.846037C83.159436 908.102139 102.823818 927.767063 127.084532 927.767063L299.251926 927.767063C299.110834 924.356443 300.093863 920.87799 302.293266 917.930802L529.184695 627.395358 344.296259 438.681709C335.976462 430.364083 325.788557 426.157923 315.343161 427.181109 305.006024 428.085452 295.600636 433.903042 288.864865 443.546116L110.068333 726.691069C107.069863 730.985954 93.061359 733.272182 88.192882 733.272182 86.504123 733.272182 84.801526 732.993798 83.159436 732.425632L83.159436 883.846037ZM937.212608 147.665467C937.212608 123.408551 917.546056 103.742542 893.287512 103.742542L127.084532 103.742542C102.823818 103.742542 83.159436 123.408551 83.159436 147.665467L83.159436 697.186357 263.558987 416.657569C275.601433 399.399886 293.039008 388.937937 312.630402 387.224488 332.22478 385.535729 351.21355 392.739544 366.1188 407.641268L554.048034 595.55802 586.415551 554.110983C598.893753 537.335996 616.738323 527.150533 636.678105 525.40371 656.572846 523.607775 675.969424 530.58503 691.161471 544.917232L859.973596 704.134037C866.167792 709.977675 867.265051 720.623313 860.607695 725.95278 842.895805 740.03373 835.761721 729.817878 829.567525 723.953348L669.971129 576.586616C661.289378 568.389189 650.529781 564.423699 639.375127 565.35816 628.329005 566.32301 618.320449 572.156337 611.163574 581.739989L345.563642 927.767063 893.287512 927.767063C917.546056 927.767063 937.212608 908.102139 937.212608 883.846037L937.212608 147.665467ZM904.326308 787.550966C900.527686 787.550966 891.730349 783.303835 888.745174 780.484714L872.434976 763.77756C866.24078 757.928767 869.513564 746.027684 875.376195 739.833488 881.208708 733.653944 890.989617 733.367148 897.18517 739.217026L915.632365 756.637507C921.826561 762.485486 922.112271 772.250658 916.250726 778.442684 913.219968 781.654961 908.424208 787.550966 904.326308 787.550966ZM645.54029 417.845452C572.009005 417.845452 512.190745 358.017424 512.190745 284.491023 512.190745 210.964621 572.009005 151.149075 645.54029 151.149075 719.073747 151.149075 778.905573 210.964621 778.905573 284.491023 778.905573 358.017424 719.073747 417.845452 645.54029 417.845452ZM645.54029 182.013151C589.023033 182.013151 543.056721 227.976208 543.056721 284.491023 543.056721 341.003667 589.023033 386.983546 645.54029 386.983546 702.057547 386.983546 748.040411 341.003667 748.040411 284.491023 748.040411 227.976208 702.057547 182.013151 645.54029 182.013151Z"  /></svg>