<svg width="125" height="125" viewBox="0 0 125 125" fill="none" xmlns="http://www.w3.org/2000/svg">
<rect width="125" height="125" rx="62.5" fill="#0A27A6"/>
<path fill-rule="evenodd" clip-rule="evenodd" d="M81.2508 50C81.2508 60.3553 72.8561 68.75 62.5008 68.75C52.1454 68.75 43.7508 60.3553 43.7508 50C43.7508 39.6447 52.1454 31.25 62.5008 31.25C72.8561 31.25 81.2508 39.6447 81.2508 50ZM75.0008 50C75.0008 56.9036 69.4043 62.5 62.5008 62.5C55.5972 62.5 50.0008 56.9036 50.0008 50C50.0008 43.0964 55.5972 37.5 62.5008 37.5C69.4043 37.5 75.0008 43.0964 75.0008 50Z" fill="white"/>
<path d="M62.5008 78.125C42.2683 78.125 25.0297 90.0888 18.4631 106.85C20.0628 108.439 21.7479 109.941 23.511 111.35C28.4009 95.9615 43.7405 84.375 62.5008 84.375C81.261 84.375 96.6007 95.9616 101.491 111.35C103.254 109.941 104.939 108.439 106.538 106.85C99.9718 90.0888 82.7332 78.125 62.5008 78.125Z" fill="white"/>
</svg>
