<svg class="svg-icon" style="width: 1em; height: 1em;vertical-align: middle;fill: currentColor;overflow: hidden;" viewBox="0 0 1024 1024" version="1.1" xmlns="http://www.w3.org/2000/svg"><path d="M844.8 102.4h-716.8a25.6 25.6 0 0 0 0 51.2H460.8v230.4a25.6 25.6 0 0 0 51.2 0V153.6h332.8a25.6 25.6 0 0 0 0-51.2zM486.4 921.6a25.6 25.6 0 0 1-25.6-25.6v-204.8a25.6 25.6 0 0 1 51.2 0v204.8a25.6 25.6 0 0 1-25.6 25.6zM947.2 614.4H25.6a25.6 25.6 0 0 1-25.6-25.6v-102.4A25.6 25.6 0 0 1 25.6 460.8h921.6a25.6 25.6 0 0 1 25.6 25.6v102.4a25.6 25.6 0 0 1-25.6 25.6zM51.2 563.2h870.4v-51.2H51.2v51.2z" fill="" /></svg>