<?xml version="1.0" encoding="iso-8859-1"?>
<!-- Uploaded to: SVG Repo, www.svgrepo.com, Generator: SVG Repo Mixer Tools -->
<svg version="1.1" id="Layer_1" xmlns="http://www.w3.org/2000/svg" xmlns:xlink="http://www.w3.org/1999/xlink" 
	 viewBox="0 0 392.663 392.663" xml:space="preserve">
<path style="fill:#FFFFFF;" d="M322.295,251.087c6.012,0,10.925-4.848,10.925-10.925V76.412c0-6.012-4.848-10.925-10.925-10.925
	H192.097c-8.986,0-17.648-3.814-23.79-10.279l-28.186-29.867c-2.069-2.133-4.913-3.426-7.952-3.426H70.432
	c-6.012,0-10.925,4.848-10.925,10.925v207.386c0,6.012,4.848,10.925,10.925,10.925h251.863V251.087z"/>
<rect x="174.901" y="327.564" style="fill:#FFC10D;" width="43.184" height="43.249"/>
<path style="fill:#194F82;" d="M372.396,338.295H239.871v-21.657c0-6.012-4.848-10.925-10.925-10.925h-21.721v-32.84h115.071
	c18.036,0,32.711-14.675,32.711-32.711V76.412c0-18.036-14.675-32.711-32.711-32.711H192.097c-3.038,0-5.883-1.228-7.952-3.426
	L155.96,10.343C149.883,3.685,141.156,0,132.17,0H70.432C52.396,0,37.721,14.675,37.721,32.711v207.386
	c0,18.036,14.675,32.711,32.711,32.711h115.071v32.84H164.04c-6.012,0-10.925,4.848-10.925,10.925v21.657H20.331
	c-6.012,0-10.925,4.848-10.925,10.925s4.848,10.925,10.925,10.925h132.655v21.657c0,6.012,4.848,10.925,10.925,10.925h65.034
	c6.012,0,10.925-4.848,10.925-10.925v-21.657h132.461c6.012,0,10.925-4.848,10.925-10.925
	C383.257,343.143,378.343,338.295,372.396,338.295z M218.085,370.812h-43.184v-43.249h43.184L218.085,370.812L218.085,370.812z
	 M59.507,240.226V32.776c0-6.012,4.848-10.925,10.925-10.925h61.737c3.038,0,5.883,1.228,7.952,3.426l28.186,29.931
	c6.206,6.594,14.869,10.279,23.79,10.279h130.198c6.012,0,10.925,4.848,10.925,10.925v163.814c0,6.012-4.848,10.925-10.925,10.925
	H70.432C64.356,251.087,59.507,246.174,59.507,240.226z"/>
<path style="fill:#56ACE0;" d="M192.097,87.273c-14.998,0-29.414-6.271-39.693-17.131l-24.954-26.505H81.293v79.58h48.162
	c6.012,0,10.925,4.848,10.925,10.925c0,6.077-4.848,10.925-10.925,10.925H81.293v17.131h15.451c6.012,0,10.925,4.848,10.925,10.925
	c0,6.012-4.848,10.925-10.925,10.925H81.293v45.188h230.141V87.273H192.097z"/>
</svg>